# xmcd CD database file
#
# Track frame offsets:
#	182
#	12465
#	27042
#	40232
#	52375
#	64642
#	77862
#	93642
#	109687
#	126177
#	138130
#	151372
#	161975
#	173405
#	184150
#	195860
#
# Disc length: 2766 seconds
#
# Revision: 0
# Processed by: cddbd v1.5.2PL0 Copyright (c) Steve Scherf et al.
# Submitted via: CDex 1.70beta1
#
DISCID=d10acc10
DTITLE=Fats Waller And His Rhythm - Stagedoor
DYEAR=1900
DGENRE=Jazz
TTITLE0=I Wish I Were Twins
TTITLE1=Do Me A Favour
TTITLE2=Dont Let It Bother You
TTITLE3=Honey Sucklerose Believe It Beloved
TTITLE4=Believe It Beloved
TTITLE5=I Believe In Miracles
TTITLE6=I'm Gonna Sit Right Down And Write Myself A Letter
TTITLE7=My Very Good Friend The Milkman
TTITLE8=When Somebody Thinks You're Wonderful
TTITLE9=I've Got My Fingers Crossed
TTITLE10=It's A Sin To Tell A Lie
TTITLE11=I'm Crazy 'Bout My Baby And My Baby's Crazy 'Bout Me
TTITLE12=The Curse Of An Aching Heart
TTITLE13=Bye Bye Baby
TTITLE14=You're Laughing At Me
TTITLE15=Imagine My Surprise
EXTD=
EXTT0=
EXTT1=
EXTT2=
EXTT3=
EXTT4=
EXTT5=
EXTT6=
EXTT7=
EXTT8=
EXTT9=
EXTT10=
EXTT11=
EXTT12=
EXTT13=
EXTT14=
EXTT15=
PLAYORDER=
